PathFileType	4	(X/Y/Z)	C:/Users/beibeiliu/ov580/test_trc/User3\sequence.43_training_dense_left.trc
DataRate	CameraRate	NumFrames	NumMarkers	Units	OrigDataRate	OrigDataStartFrame	OrigNumFrames
120	120	21	19	mm	120	73	121
Frame#	Time	ThumbCMC			ThumbMCP			ThumbIP			ThumbTip			IndexMCP			IndexPIP			IndexTip			MiddleMCP			MiddlePIP			MiddleTip			RingMCP			RingPIP			RingTip			PinkyMCP			PinkyPIP			PinkyTip			BackHand1			BackHand2			BackHand3	
		X0	Y0	Z0	X1	Y1	Z1	X2	Y2	Z2	X3	Y3	Z3	X4	Y4	Z4	X5	Y5	Z5	X6	Y6	Z6	X7	Y7	Z7	X8	Y8	Z8	X9	Y9	Z9	X10	Y10	Z10	X11	Y11	Z11	X12	Y12	Z12	X13	Y13	Z13	X14	Y14	Z14	X15	Y15	Z15	X16	Y16	Z16	X17	Y17	Z17	X18	Y18	Z18	
72	0.6	-132.346	6.20425	30.6921	-125.521	4.21627	-0.71966	-122.932	2.86095	-31.9022	-128.331	-13.1501	-52.9695	-198.967	-0.724518	-15.8747	-203.56	-5.15337	-47.5388	-174.857	-19.4974	-55.7669	-212.784	-23.9559	-15.3077	-210.571	-37.1144	-45.7197	-175.712	-49.4458	-49.7961	-190.684	-51.7121	-14.6685	-165.085	-62.7972	-29.2348	-141.497	-52.5424	-5.22833	-181.666	-63.9101	0.371899	-155.046	-71.9927	-8.57104	-134.374	-61.8354	14.0236	-191.642	-34.2016	43.9373	-173.074	-29.4135	70.8053	-170.607	-3.13949	44.9773	
73	0.608333	-148.575	0.576362	26.4688	-148.316	-3.56427	-7.10067	-147.948	-6.77471	-39.2414	-148.036	-17.9458	-59.1111	-218.212	-8.25944	-7.58242	-234.158	-10.6793	-38.1836	-216.746	-31.0696	-59.1973	-231.23	-31.2403	-4.14709	-243.016	-44.9916	-30.3025	-216.664	-64.7416	-56.0793	-210.447	-57.8448	-6.10258	-187.025	-71.3216	-26.4842	-158.029	-64.967	-10.121	-197.173	-73.7765	3.30977	-172.248	-81.8898	-6.05299	-149.379	-66.0865	7.75272	-202.398	-37.3447	45.5967	-184.07	-37.9092	70.7315	-184.397	-9.01144	44.1672	
74	0.616667	-158.01	-11.8702	28.1592	-152.945	-13.7295	-6.09802	-154.633	-20.9974	-37.2196	-153.98	-32.9951	-57.0052	-222.904	-29.4054	-8.96163	-235.967	-36.4732	-38.1676	-216.259	-47.625	-61.8722	-233.979	-52.9	-5.80766	-239.493	-67.81	-32.4833	-215.005	-79.6209	-58.0962	-206.476	-73.8402	-4.64318	-179.53	-87.8404	-23.5501	-155.396	-77.8622	-10.4684	-191.736	-90.8899	7.56285	-168.816	-90.708	-3.30861	-146.616	-74.3986	10.3776	-201.551	-57.0788	50.2839	-185.974	-45.5299	73.4053	-190.014	-21.0036	46.2223	
75	0.625	-146.662	-15.6644	30.3546	-135.21	-23.1459	0.301885	-128.798	-27.7731	-27.7595	-124.136	-48.1421	-45.5379	-196.15	-48.8023	-19.604	-192.747	-59.1105	-52.8519	-163.783	-62.1265	-63.9461	-201.664	-69.8996	-18.3866	-194.496	-86.5957	-46.1864	-154.278	-91.1105	-53.5942	-172.649	-90.8453	-9.34931	-143.585	-92.9062	-21.1766	-124.666	-76.3863	5.74067	-162.348	-98.2462	8.34135	-134.203	-97.2928	4.49904	-124.841	-73.7352	22.8996	-189.218	-66.6994	38.3187	-178.677	-55.2985	71.307	-181.38	-32.9608	45.4238	
76	0.633333	-136.284	-11.7175	32.4424	-114.99	-11.9947	9.35915	-99.9434	-24.4812	-14.3061	-86.3409	-44.4608	-26.2027	-152.754	-48.4698	-29.4077	-132.525	-57.3117	-57.2626	-102.21	-57.3889	-47.8138	-151.828	-75.8605	-30.7438	-126.48	-86.3696	-48.2981	-93.5703	-74.7429	-31.953	-130.874	-86.0202	-10.8013	-97.2931	-86.3732	-6.4476	-96.9296	-68.1718	19.4201	-121.325	-97.3985	10.2994	-97.2495	-86.9184	17.2479	-105.506	-63.4382	41.3061	-165.026	-71.3337	34.4543	-169.842	-65.5969	61.4195	-168.641	-39.2382	33.4808	
77	0.641667	-134.588	-5.90755	38.4632	-107.278	1.57518	18.7711	-80.3209	-3.82788	3.04904	-63.7811	-23.4816	0.460565	-116.507	-42.6066	-27.1806	-85.2857	-41.2363	-43.6791	-62.0965	-31.9041	-20.7839	-108.727	-62.1676	-26.6103	-77.0466	-61.3972	-32.3045	-62.2032	-47.6658	1.59345	-94.4381	-72.9558	-2.15703	-68.267	-63.7556	12.6893	-83.7722	-46.6075	36.9008	-91.3354	-80.0862	17.6009	-74.4863	-63.6887	33.2395	-93.6216	-50.2881	48.4947	-146.463	-71.3687	27.3181	-158.69	-63.5144	55.8107	-156.113	-38.5134	27.6975	
78	0.65	-133.164	8.82999	38.3186	-101.843	16.1338	22.6307	-74.4117	11.4894	14.0295	-56.1521	-6.24892	13.0347	-97.2421	-26.0019	-24.9056	-67.4855	-19.6785	-33.4826	-51.0204	-8.90018	-7.59357	-88.7475	-47.2933	-17.3997	-53.8725	-35.7261	-12.1701	-57.4076	-20.3849	21.4381	-82.6893	-55.5916	3.18454	-56.885	-44.8231	22.0508	-75.0243	-30.7457	43.6662	-83.0861	-64.9978	23.4251	-67.1434	-45.3879	41.1044	-89.8992	-35.8967	55.5651	-135.353	-57.131	26.3855	-151.37	-54.6595	49.2653	-148.413	-25.3632	25.1307	
79	0.658333	-115.818	17.0346	38.8404	-85.0922	23.3378	25.7852	-56.5217	19.861	12.4926	-37.9058	3.6499	6.2762	-88.7165	-15.1805	-24.9095	-53.4331	-14.3461	-29.1547	-40.7018	-3.8886	-4.95414	-78.1173	-35.3838	-19.5743	-47.6976	-28.3402	-11.5777	-54.6841	-18.3441	25.511	-72.7632	-45.5283	-1.98914	-52.9035	-40.1684	19.9487	-69.91	-24.1585	41.9982	-78.1329	-57.9708	16.5512	-60.9505	-46.1628	35.6301	-81.8662	-31.9069	51.7669	-130.533	-45.2623	21.5652	-147.894	-39.4781	42.1554	-140.055	-10.7233	21.8207	
80	0.666667	-90.61	21.019	44.388	-61.7344	24.2969	31.4299	-39.2972	18.3839	10.7601	-21.3249	9.43814	-0.134088	-69.4694	-3.52915	-27.699	-37.1544	-11.2052	-26.3065	-28.2056	-4.92876	4.24979	-66.4616	-25.2071	-21.4769	-36.2085	-29.8595	-7.08076	-47.7548	-18.8177	26.9516	-68.9557	-37.7209	-6.04419	-45.288	-39.2718	12.6192	-62.2274	-22.4701	39.3376	-72.0252	-56.2324	9.13881	-56.2417	-46.2579	25.8989	-71.5039	-32.6629	48.4781	-121.583	-29.989	11.8462	-134.908	-19.9774	41.8255	-120.869	7.5844	26.0491	
81	0.675	-79.3375	31.5115	46.7981	-56.0449	35.8567	27.1751	-36.3822	38.5012	5.38725	-18.9501	33.6633	-8.14605	-57.0967	4.27406	-24.1759	-26.1839	-5.25854	-25.9643	-17.511	-4.57338	7.66013	-52.5393	-15.4988	-21.5372	-22.9122	-20.1756	-7.06463	-38.8759	-17.9502	29.2402	-57.3034	-34.4508	-6.27647	-33.7027	-38.4298	12.2062	-51.2369	-19.685	39.4986	-59.5191	-46.465	6.17592	-42.2501	-42.3223	24.7	-59.7925	-31.6102	49.4706	-109.272	-25.0337	15.8112	-121.591	-21.2223	43.3321	-106.545	10.7457	27.7984	
82	0.683333	-87.3494	29.9426	44.5964	-73.5556	40.5204	24.9258	-56.9196	46.0885	-4.03082	-42.809	42.9039	-21.3399	-58.294	4.17108	-26.6802	-25.8101	2.48463	-28.4694	-14.6454	1.99886	2.86602	-54.0173	-17.055	-20.9639	-19.9333	-15.6656	-6.95101	-35.0514	-12.1179	28.3204	-50.1692	-33.9134	-6.64176	-26.5768	-33.3897	12.0843	-43.5332	-16.6786	37.2231	-55.204	-48.3064	8.48418	-32.2156	-40.5961	25.1096	-48.8121	-30.3669	47.8036	-101.93	-29.3354	16.6387	-115.5	-25.7813	47.0772	-108.605	2.63614	30.775	
83	0.691667	-99.991	20.459	48.0761	-96.0965	36.233	20.1944	-86.4245	38.3204	-7.84263	-72.8679	37.9439	-29.5044	-72.4405	-1.8025	-26.5823	-39.2255	1.1781	-32.0765	-24.994	8.22865	-3.59392	-59.2145	-23.964	-23.6925	-29.4283	-16.6947	-12.491	-38.6137	-10.9024	22.9562	-56.3064	-36.6572	-6.95214	-29.9451	-29.4741	8.22731	-48.8578	-19.3255	36.8964	-53.5302	-52.1831	9.2659	-32.6873	-40.2512	23.4745	-51.0274	-26.8221	45.4794	-102.541	-43.4698	23.2985	-113.015	-40.6765	54.5626	-114.689	-8.66286	32.5882	
84	0.7	-112.322	14.1303	44.1853	-111.152	26.1247	16.6032	-105.995	30.5075	-13.122	-91.9687	24.1691	-32.4997	-92.1669	-8.4358	-28.637	-57.2734	-1.8374	-36.1574	-43.4838	9.71965	-12.4793	-75.9014	-23.7966	-26.5765	-45.9436	-16.7985	-20.7603	-52.6729	-8.48795	18.9447	-66.9854	-40.5168	-10.4344	-42.7569	-25.3869	5.10483	-61.2311	-18.3661	31.9422	-62.8097	-50.6475	2.71449	-42.3843	-38.7798	17.3539	-58.134	-27.2519	40.3092	-112.236	-52.265	24.8302	-117.837	-45.8003	59.3635	-125.518	-16.0378	35.5191	
85	0.708333	-115.355	14.3016	45.7889	-110.078	22.7676	16.3318	-102.143	24.9242	-11.2348	-91.2757	20.6297	-34.0322	-103.443	-7.31095	-31.1142	-75.9473	-0.00490377	-41.6405	-56.1557	8.84432	-15.5763	-91.0816	-22.2494	-28.721	-58.3895	-10.8956	-21.921	-64.2065	-8.24037	14.3629	-77.8831	-39.9216	-14.6383	-54.362	-23.352	-1.21475	-71.6379	-21.3931	29.7382	-70.3446	-52.0679	-3.33943	-53.7033	-37.1493	10.0958	-68.795	-30.9371	40.0166	-120.421	-51.6721	25.3626	-125.406	-46.9068	53.8006	-133.419	-15.8047	39.0125	
86	0.716667	-114.896	12.2558	45.6236	-104.495	25.4132	16.2944	-94.5404	31.8698	-9.64788	-83.0179	25.6204	-35.6523	-110.382	-6.14863	-30.4316	-80.3869	5.08773	-44.5795	-59.727	10.0263	-17.1842	-97.1028	-24.5882	-29.0888	-66.2036	-12.5315	-26.6424	-71.4854	-11.7572	16.0849	-85.8276	-36.4026	-16.8078	-59.8861	-26.2056	-0.679835	-73.4661	-22.2656	26.1796	-81.2657	-49.823	-6.00471	-61.8913	-34.4802	7.78028	-72.2533	-33.9768	35.2558	-125.7	-50.0168	24.5299	-131.618	-46.7015	51.1755	-138.72	-14.5749	36.8429	
87	0.725	-113.903	14.6955	45.1172	-102.789	29.8472	17.4676	-93.4355	33.2754	-8.62603	-81.9275	38.0392	-30.9398	-112.05	-5.39249	-33.4627	-83.6661	1.3638	-46.5774	-60.3186	8.47654	-22.1854	-99.1138	-20.5556	-32.7362	-67.5814	-11.0657	-28.8397	-69.8326	-9.83179	9.54464	-88.2694	-39.9058	-18.4476	-62.2039	-27.0737	-6.48164	-75.7137	-21.7017	24.9246	-84.5045	-50.9574	-6.69036	-61.5762	-38.7814	7.69335	-73.2837	-35.4566	33.4068	-129.613	-49.9871	22.816	-131.534	-47.715	55.7768	-138.54	-14.8687	37.0678	
88	0.733333	-118.687	13.2214	43.8257	-113.09	27.1376	19.1161	-108.336	38.2394	-11.9785	-97.017	34.0522	-34.2645	-115.221	-8.70546	-29.9442	-83.4214	1.76731	-45.0976	-62.1195	5.09648	-24.6346	-99.5124	-26.6062	-32.8633	-68.7634	-15.8675	-28.0029	-68.7172	-10.0237	8.00926	-91.129	-43.2202	-16.2148	-64.7363	-29.4191	-8.77294	-73.5716	-24.1588	23.3701	-85.6434	-52.7803	-6.25878	-64.054	-39.8323	4.21478	-70.8104	-36.6764	33.156	-130.582	-49.9392	26.0789	-131.299	-50.3191	55.9954	-138.549	-16.3393	34.4046	
89	0.741667	-121.37	9.92154	43.0698	-120.964	21.7646	16.5069	-117.452	25.5292	-14.0501	-109.422	25.6065	-34.4627	-117.207	-12.024	-30.9168	-87.1679	-2.32351	-45.0623	-64.7588	7.70922	-23.2389	-102.634	-29.5178	-32.615	-72.4683	-15.3474	-29.7984	-70.0039	-12.6236	8.322	-92.8701	-42.4567	-17.6349	-64.817	-31.6447	-8.47636	-74.8888	-22.0776	21.8336	-86.3249	-58.568	-4.14538	-64.7713	-40.5056	4.91242	-75.6558	-32.6885	32.4797	-128.968	-55.0412	27.3249	-130.623	-52.7541	58.4913	-141.212	-19.2501	35.7793	
90	0.75	-119.089	12.0867	44.0585	-113.553	18.5223	14.4674	-108.365	24.0589	-18.7204	-100.257	17.0415	-38.9695	-119.315	-14.838	-30.6742	-91.4767	-6.88272	-48.2912	-66.1217	1.42428	-23.9918	-107.07	-30.614	-29.7609	-74.8221	-20.8163	-32.8496	-72.3771	-15.6885	8.7505	-96.6409	-44.1136	-17.0152	-65.8711	-33.2942	-8.68392	-77.8577	-26.3439	25.8131	-84.56	-58.8826	-6.32938	-66.7943	-42.6395	2.30186	-74.4919	-34.8572	29.5569	-131.444	-50.1048	25.9014	-130.645	-52.7986	55.351	-142.614	-17.2591	36.9171	
91	0.758333	-115.999	11.7829	42.2985	-105.531	22.1434	14.459	-97.0295	27.6996	-13.6847	-88.5075	24.0707	-34.1662	-116.946	-10.5333	-35.2214	-89.3678	-7.28397	-46.9389	-67.3793	-0.0696	-23.2522	-108.648	-28.2439	-30.7645	-72.4585	-19.6651	-29.3913	-73.6222	-17.8332	9.11295	-92.866	-44.0236	-20.8682	-67.0986	-37.8141	-8.61569	-76.7369	-30.3779	23.5016	-91.6723	-59.7301	-5.2989	-66.8944	-46.5337	4.57455	-76.0235	-38.9	33.7639	-134.231	-50.4832	23.4954	-134.86	-50.7556	53.2589	-139.877	-18.2907	34.5002	
92	0.766667	-117.251	11.0898	41.8128	-107.647	18.3947	15.5563	-102.838	28.5699	-15.9697	-94.4311	26.2919	-36.7135	-118.71	-13.0829	-31.4283	-87.0815	-6.259	-44.5155	-69.2422	-2.22443	-20.4781	-107.791	-33.0637	-31.5931	-75.2211	-23.6913	-29.3597	-77.2947	-16.9714	10.9419	-95.1655	-47.2859	-19.2522	-68.3868	-36.8569	-6.89494	-77.0534	-27.6374	21.8877	-90.3325	-60.7906	-7.2425	-68.4352	-45.8382	2.75265	-78.9713	-37.024	31.9686	-133.575	-54.4452	24.7969	-134.973	-48.9224	57.6301	-140.168	-21.6985	38.3782	
